<svg width="393" height="89" viewBox="0 0 393 89" fill="none" xmlns="http://www.w3.org/2000/svg">
<g clip-path="url(#clip0_11_277)">
<path d="M204.43 2.32007H203.31C199.124 2.32007 195.73 5.71151 195.73 9.89507C195.73 14.0786 199.124 17.4701 203.31 17.4701H204.43C208.616 17.4701 212.01 14.0786 212.01 9.89507C212.01 5.71151 208.616 2.32007 204.43 2.32007Z" fill="black"/>
<path d="M172.18 85.92V1.75H188.46V85.92H172.18Z" fill="black"/>
<path d="M212.01 24.3H195.73V85.92H212.01V24.3Z" fill="black"/>
<path d="M258.85 85.92V52.59C258.85 47.8433 258.057 44.63 256.47 42.95C254.883 41.27 252.17 40.4367 248.33 40.45C239.897 40.45 235.68 45.1666 235.68 54.6V85.92H219.4V24.3H234.93V33.3C236.666 29.9626 239.316 27.188 242.57 25.3C245.743 23.5133 249.833 22.6167 254.84 22.61C257.619 22.6099 260.378 23.0798 263 24C265.416 24.8236 267.619 26.1726 269.45 27.95C271.303 29.7802 272.754 31.977 273.71 34.4C274.808 37.2118 275.341 40.2121 275.28 43.23V85.92H258.85Z" fill="black"/>
<path d="M320.22 85.92L306.69 58.24L298.8 66.38V85.92H282.4V1.75H298.8V47.75L319.09 24.3H339L318.34 47L338.51 86L320.22 85.92Z" fill="black"/>
<path d="M375.08 43.0001C374.66 40.0001 373.57 37.8901 371.82 36.6701C370.07 35.4501 367.31 34.8601 363.55 34.8601C361.119 34.727 358.688 35.1157 356.42 36.0001C355.636 36.3205 354.972 36.8788 354.522 37.5964C354.071 38.3139 353.857 39.1546 353.91 40.0001C353.887 40.8661 354.111 41.7207 354.556 42.4643C355 43.2079 355.647 43.8099 356.42 44.2001C358.802 45.4301 361.324 46.3702 363.93 47.0001C367.437 48.0001 370.77 48.8967 373.93 49.6901C376.775 50.381 379.576 51.2391 382.32 52.2601C385.271 53.3676 387.869 55.2504 389.84 57.7101C391.593 59.9967 392.47 63.1467 392.47 67.1601C392.47 73.5934 390.193 78.5934 385.64 82.1601C381.087 85.7267 374.387 87.5234 365.54 87.5501C356.02 87.5501 348.733 85.5501 343.68 81.5501C341.28 79.7572 339.326 77.435 337.97 74.7641C336.614 72.0932 335.892 69.1455 335.86 66.1501H352.64C352.584 67.4661 352.862 68.7749 353.45 69.9537C354.038 71.1326 354.915 72.1429 356 72.8901C358.253 74.4834 361.383 75.2767 365.39 75.2701C368.009 75.3285 370.612 74.838 373.03 73.8301C374.039 73.4579 374.901 72.7706 375.488 71.8699C376.075 70.9692 376.356 69.9032 376.29 68.8301C376.339 67.8491 376.082 66.877 375.556 66.0479C375.029 65.2187 374.259 64.5731 373.35 64.2001C371.114 63.1886 368.787 62.3917 366.4 61.8201C361.22 60.5734 357.043 59.4467 353.87 58.4401C351.052 57.5955 348.361 56.3745 345.87 54.8101C343.297 53.3331 341.193 51.1598 339.8 48.5401C338.681 46.185 338.11 43.6072 338.13 41.0001C338.111 38.5099 338.58 36.0401 339.51 33.7301C340.455 31.4102 342.006 29.3865 344 27.8701C346.415 26.0818 349.156 24.784 352.07 24.0501C355.99 23.0537 360.026 22.5895 364.07 22.6701C373.003 22.6701 379.577 24.3801 383.79 27.8001C388.003 31.2201 390.337 36.2734 390.79 42.9601L375.08 43.0001Z" fill="black"/>
<path d="M49.22 27.3C48.8 23.04 47.2567 19.87 44.59 17.79C41.9233 15.71 37.9567 14.6634 32.69 14.65C27.7633 14.65 24.0467 15.4867 21.54 17.16C20.3329 17.9355 19.3504 19.014 18.6906 20.288C18.0308 21.562 17.7168 22.9867 17.78 24.42C17.7333 25.6423 17.9762 26.8582 18.4889 27.9687C19.0016 29.0792 19.7695 30.0528 20.73 30.81C22.69 32.4034 26.0233 33.78 30.73 34.94C35.4367 36.1 39.9667 37.25 44.32 38.39C48.1205 39.3391 51.8312 40.6173 55.41 42.21C57.2021 43.0159 58.9188 43.9797 60.54 45.09C62.1381 46.1774 63.5383 47.5303 64.68 49.09C65.9048 50.7999 66.8344 52.7029 67.43 54.72C68.1409 57.2029 68.478 59.7778 68.43 62.36C68.5398 66.442 67.7047 70.4941 65.99 74.2C64.399 77.4561 62.0331 80.2718 59.1 82.4C55.9345 84.6659 52.3631 86.3022 48.58 87.22C44.202 88.3138 39.7024 88.8448 35.19 88.8C30.4067 88.8542 25.6367 88.2861 21 87.11C17.0287 86.1124 13.2915 84.3458 10 81.91C6.94238 79.6051 4.45509 76.6285 2.73 73.21C0.907056 69.3993 -0.0264294 65.2243 -3.51248e-06 61H16.78C16.7992 62.9717 17.2817 64.9113 18.1884 66.6623C19.0952 68.4132 20.4008 69.9265 22 71.08C25.3 73.54 29.7467 74.77 35.34 74.77C40.52 74.77 44.52 73.7467 47.34 71.7C48.7098 70.715 49.8116 69.403 50.5452 67.8836C51.2787 66.3641 51.6207 64.6854 51.54 63C51.5572 61.8481 51.364 60.7027 50.97 59.62C50.5381 58.5338 49.8523 57.5669 48.97 56.8C47.7897 55.7895 46.4476 54.9849 45 54.42C42.9346 53.5868 40.7996 52.9376 38.62 52.48C33.44 51.3134 29.0767 50.29 25.53 49.41C22.1969 48.6084 18.9461 47.4969 15.82 46.09C11.7369 44.4339 8.16077 41.7337 5.45 38.26C3.07 35.0467 1.88 30.81 1.88 25.55C1.83489 22.0177 2.47328 18.51 3.76 15.22C4.99182 12.1125 6.94567 9.34283 9.46 7.14004C12.2429 4.74709 15.4911 2.95617 19 1.88004C23.3099 0.555898 27.802 -0.0785997 32.31 3.77297e-05C37.0525 -0.0696765 41.7767 0.605198 46.31 2.00004C50.1063 3.16695 53.6294 5.08493 56.67 7.64004C59.4377 10.0192 61.6613 12.9658 63.19 16.28C64.756 19.7435 65.6258 23.481 65.75 27.28L49.22 27.3Z" fill="#1868FF"/>
<path d="M73 85.92V1.75H89.3V85.92H73Z" fill="#1868FF"/>
<path d="M142.94 72C140.789 73.2381 138.341 73.8673 135.86 73.82C134.038 73.8867 132.224 73.5503 130.547 72.8346C128.87 72.1189 127.372 71.0417 126.16 69.68C123.693 66.9333 122.337 63.22 122.09 58.54H164.55C164.55 46.26 162.107 37.0733 157.22 30.98C152.333 24.8867 145.13 21.84 135.61 21.84C131.308 21.7575 127.029 22.4904 123 24C119.451 25.3774 116.261 27.5416 113.67 30.33C111.06 33.1834 109.077 36.5526 107.85 40.22C106.463 44.3771 105.787 48.7382 105.85 53.12C105.85 75.5 116.12 86.69 136.66 86.69C142.731 86.8417 148.69 85.0399 153.66 81.55C158.548 77.9322 162.072 72.7701 163.66 66.9H146.89C146.609 67.9723 146.114 68.9768 145.435 69.8531C144.757 70.7295 143.908 71.4597 142.94 72ZM125.06 36.73L138 33.67C139.749 33.2511 141.592 33.542 143.127 34.479C144.662 35.4161 145.763 36.923 146.19 38.67L147.52 44.24L124.92 49.61L122.19 54.06L119.75 44C118.88 40.35 121.4 37.61 125.06 36.73Z" fill="#1868FF"/>
<path fill-rule="evenodd" clip-rule="evenodd" d="M137.44 11.4501L145.65 4.62008C146.11 4.23008 145.79 3.86008 144.94 3.78008L121.08 1.61008C120.243 1.52333 119.401 1.72057 118.69 2.17008L99.59 18.0601C99.13 18.4401 99.44 18.8301 100.29 18.9001L110.47 19.8301L109.86 17.8301C117.13 10.3001 126.14 7.57008 136.86 9.45008L137.44 11.4501Z" fill="#1868FF"/>
<path fill-rule="evenodd" clip-rule="evenodd" d="M110.81 18.0001C117.81 11.5501 126.3 9.00005 136.14 10.1301L138.19 16.7401C128.97 15.5001 120.41 17.5001 112.86 24.6001L110.81 18.0001Z" fill="#1868FF"/>
<path d="M104.15 29.3101L105.44 39.3101C105.471 39.5906 105.442 39.8745 105.356 40.1432C105.269 40.4118 105.127 40.6591 104.938 40.8688C104.749 41.0785 104.518 41.2458 104.26 41.3598C104.002 41.4737 103.722 41.5318 103.44 41.5301C103.16 41.5251 102.884 41.4614 102.631 41.3432C102.377 41.2249 102.151 41.0547 101.967 40.8436C101.783 40.6324 101.646 40.3851 101.564 40.1175C101.481 39.8499 101.456 39.568 101.49 39.2901L102.91 29.2901C102.736 29.1882 102.591 29.0421 102.491 28.8665C102.391 28.691 102.339 28.4921 102.34 28.2901V26.2401C102.341 26.0328 102.396 25.8293 102.5 25.6501C101.76 25.4201 101.25 24.9401 101.25 24.3801C101.25 23.8201 102.03 23.2701 103.05 23.1401V18.4501H104.05V23.1501C105.05 23.3101 105.73 23.7201 105.73 24.3801C105.73 25.0401 105.23 25.3801 104.48 25.6501C104.589 25.8275 104.644 26.0322 104.64 26.2401V28.3101C104.648 28.5043 104.607 28.6975 104.522 28.8721C104.436 29.0467 104.308 29.1972 104.15 29.3101Z" fill="#1868FF"/>
</g>
<defs>
<clipPath id="clip0_11_277">
<rect width="392.49" height="88.8" fill="white"/>
</clipPath>
</defs>
</svg>
